<?xml version="1.0" encoding="UTF-8" standalone="no"?>
<svg
   width="16mm"
   height="16mm"
   viewBox="0 0 16 16"
   version="1.1"
   id="svg1"
   xml:space="preserve"
   xmlns="http://www.w3.org/2000/svg"
   xmlns:svg="http://www.w3.org/2000/svg"><defs
     id="defs1" /><g
     id="layer1"><path
       style="fill:#ffffff;stroke-width:0.118918"
       d="m 3.5391361,15.998154 c -0.2658332,-0.03126 -0.608619,-0.130353 -0.86794,-0.250877 -0.1470139,-0.06834 -0.2075482,-0.11667 -0.2462786,-0.196686 -0.063581,-0.131357 -0.064267,-0.184316 -0.00387,-0.298818 0.077916,-0.147709 0.1648579,-0.187233 0.4124206,-0.187495 0.3244649,-3.53e-4 0.6130112,-0.05416 0.7864182,-0.146685 0.083548,-0.04458 0.1519034,-0.09303 0.1519034,-0.107694 0,-0.01465 -0.063226,-0.102738 -0.1405053,-0.19575 -0.1646619,-0.198185 -0.308104,-0.480801 -0.3880641,-0.764588 -0.082114,-0.291428 -0.081469,-0.989261 0.00121,-1.308409 0.2309558,-0.891525 0.8071089,-1.557091 1.5533291,-1.794393 0.3336818,-0.10611 0.7672074,-0.115388 1.0440961,-0.02235 l 0.1792755,0.06024 2.934958,-5.2807097 c 1.614231,-2.9043852 2.965649,-5.31612661 3.003156,-5.35941882 0.0591,-0.06821194 0.0802,-0.07457196 0.158242,-0.04767264 0.132886,0.04581419 0.151517,0.21458195 0.109923,0.99572226 -0.05162,0.969613 -0.17843,1.7374564 -0.433702,2.626271 -0.105205,0.3663071 -2.3079038,6.2093616 -2.3700233,6.2869159 -0.015284,0.01908 -0.1670822,0.04429 -0.3373285,0.05601 -0.891281,0.0614 -1.4894458,0.414523 -2.0420856,1.205521 l -0.1961707,0.28078 0.062726,0.14607 c 0.2377404,0.553624 0.2760384,1.109366 0.1187567,1.723306 -0.027963,0.109153 -0.1315239,0.359676 -0.2301365,0.556715 -0.1621667,0.324033 -0.2083377,0.386583 -0.4833011,0.654768 -0.2274269,0.22182 -0.3631041,0.325918 -0.538613,0.413254 -0.1655644,0.08238 -0.3066751,0.18765 -0.4794948,0.357693 -0.4784354,0.470746 -1.0860407,0.677415 -1.758899,0.598269 z m 1.844539,-1.555637 c 0.3881761,-0.177562 0.7458154,-0.606247 0.9130887,-1.094474 0.075712,-0.220986 0.090043,-0.315056 0.092078,-0.604399 0.0035,-0.496322 -0.1100682,-0.832246 -0.3720844,-1.100699 -0.2142957,-0.219561 -0.3387538,-0.269531 -0.6719577,-0.269793 -0.2643882,-2.34e-4 -0.3008306,0.0077 -0.4822522,0.104127 -0.3704871,0.196999 -0.7159057,0.614082 -0.8684228,1.048594 -0.238037,0.678149 -0.051695,1.554592 0.393038,1.848629 0.3258318,0.215424 0.6290105,0.236116 0.9965128,0.06802 z M 8.7210585,9.2533643 C 8.8786406,9.188814 8.949509,9.1223918 9.0189375,8.9741786 9.1979338,8.5920499 8.9294042,8.1725981 8.5057734,8.1725981 c -0.510739,0 -0.7708575,0.5564456 -0.4352719,0.9311349 0.1730588,0.193225 0.4106911,0.2478826 0.650557,0.1496313 z M 8.3158565,8.8734244 C 8.2429595,8.7825804 8.2472375,8.6388622 8.3251165,8.5625199 8.466901,8.423523 8.729149,8.5304309 8.729149,8.7272197 c 0,0.2235038 -0.2736028,0.3202932 -0.413289,0.1462047 z m 3.4639685,7.0765686 c -0.345953,-0.08907 -0.629556,-0.253978 -0.919872,-0.534884 -0.173209,-0.167597 -0.339738,-0.296059 -0.459097,-0.35416 -0.8345551,-0.406236 -1.3857094,-1.343712 -1.3857094,-2.357 0,-0.377255 0.040632,-0.603712 0.1653228,-0.921396 L 9.2764671,11.53797 9.0901956,11.269061 C 8.9877472,11.12116 8.7944134,10.891463 8.6605653,10.758621 l -0.2433601,-0.241528 0.1283339,-0.03388 c 0.2139344,-0.05647 0.4745943,-0.09123 0.6856867,-0.09141 0.2097094,-2.36e-4 0.3312028,-0.04311 0.4324243,-0.152754 0.033252,-0.03603 0.070258,-0.06549 0.082237,-0.06549 0.011971,0 0.098261,0.138365 0.1917436,0.307478 l 0.1699683,0.307479 0.102502,-0.04199 c 0.308157,-0.126223 0.781287,-0.1185 1.181178,0.01928 0.733316,0.252667 1.320302,0.979978 1.507986,1.868486 0.08992,0.425708 0.06802,0.975765 -0.05276,1.324297 -0.107174,0.309296 -0.217802,0.511168 -0.377734,0.689284 -0.104519,0.116408 -0.117264,0.145075 -0.08266,0.185948 0.1165,0.137608 0.480816,0.230007 0.908671,0.230449 0.198021,2.36e-4 0.240646,0.01074 0.324643,0.08 0.124513,0.102711 0.15834,0.261303 0.08701,0.40794 -0.06396,0.131496 -0.333222,0.260125 -0.778736,0.372024 -0.349255,0.08772 -0.862462,0.09924 -1.147874,0.02576 z m -0.20084,-1.483285 c 0.416169,-0.191773 0.648619,-0.653348 0.648101,-1.286927 -2.4e-4,-0.363138 -0.05402,-0.596376 -0.208069,-0.903427 -0.183292,-0.365325 -0.452664,-0.643268 -0.795305,-0.820613 -0.137624,-0.07123 -0.197167,-0.08224 -0.444891,-0.08229 -0.333199,-7.4e-5 -0.457408,0.04974 -0.67204,0.269504 -0.5688827,0.5825 -0.4951818,1.744752 0.154854,2.442 0.412728,0.442703 0.886901,0.580118 1.31735,0.381764 z M 5.4589512,6.7794412 C 4.9300607,5.3924289 4.4551192,4.1202357 4.4035256,3.9523435 4.0967317,2.9539947 3.947969,2.1099494 3.9022401,1.1081466 3.8730534,0.46874124 3.8924638,0.15402885 3.9638232,0.10977988 4.0198153,0.07506132 4.0922712,0.07284495 4.1427264,0.10427337 4.1846516,0.13041555 7.849922,6.7137072 7.8496146,6.7623146 7.8493744,6.8042879 6.4619344,9.3010067 6.4387997,9.3011443 6.4287701,9.3012035 5.9878431,8.1664225 5.4589515,6.7794123 Z"
       id="path1" /></g></svg>
